<svg width="18" height="18" viewBox="0 0 18 18" fill="none" xmlns="http://www.w3.org/2000/svg">
<path d="M7.25633 0.669076L7.76258 0.666992H10.2376L10.7445 0.669076L11.3792 0.67602L11.6799 0.680881L11.9702 0.68852L12.2501 0.698242L12.5195 0.709353L12.7792 0.723937L13.0292 0.741298L13.2688 0.762131L13.5001 0.785048C14.7084 0.921159 15.5369 1.21283 16.1619 1.83783C16.7869 2.46283 17.0786 3.2906 17.2147 4.49963L17.2383 4.73088L17.2584 4.97116L17.2758 5.22116L17.2897 5.48019L17.307 5.88852L17.3154 6.17324L17.3244 6.62046L17.3306 7.25588L17.3334 7.93644L17.3327 10.2371L17.3306 10.7441L17.3237 11.3788L17.3188 11.6795L17.3112 11.9698L17.3015 12.2496L17.2904 12.5191L17.2758 12.7788L17.2584 13.0288L17.2376 13.2684L17.2147 13.4996C17.0786 14.708 16.7869 15.5364 16.1619 16.1614C15.5369 16.7864 14.7091 17.0781 13.5001 17.2142L13.2688 17.2378L13.0286 17.258L12.7786 17.2753L12.5195 17.2892L12.1112 17.3066L11.8265 17.3149L11.3792 17.3239L10.7438 17.3302L10.0633 17.333L7.76258 17.3323L7.25564 17.3302L6.62091 17.3232L6.32022 17.3184L6.02994 17.3107L5.75008 17.301L5.48064 17.2899L5.22091 17.2753L4.97091 17.258L4.73133 17.2371L4.50008 17.2142C3.29175 17.0781 2.46328 16.7864 1.83828 16.1614C1.21328 15.5364 0.921609 14.7087 0.785498 13.4996L0.761887 13.2684L0.741748 13.0281L0.724387 12.7781L0.710498 12.5191L0.693137 12.1107L0.684804 11.826L0.675776 11.3788L0.669526 10.7434L0.666748 10.0628L0.667442 7.76213L0.669526 7.25519L0.67647 6.62046L0.681331 6.31977L0.68897 6.02949L0.698692 5.74963L0.709804 5.48019L0.724387 5.22046L0.741748 4.97046L0.762581 4.73088L0.785498 4.49963C0.921609 3.2913 1.21328 2.46283 1.83828 1.83783C2.46328 1.21283 3.29105 0.921159 4.50008 0.785048L4.73133 0.761437L4.97161 0.741298L5.22161 0.723937L5.48064 0.710048L5.88897 0.692687L6.17369 0.684353L6.62091 0.675326L7.25633 0.669076ZM5.38203 5.73574H3.47925C3.56953 10.0691 5.73619 12.6732 9.5348 12.6732H9.75008V10.1941C11.1459 10.333 12.2015 11.3538 12.6251 12.6732H14.5973C14.0556 10.701 12.632 9.61074 11.7431 9.19407C12.632 8.68019 13.882 7.43019 14.1806 5.73574H12.389C12.0001 7.11074 10.8473 8.36074 9.75008 8.4788V5.73574H7.95841V10.5413C6.8473 10.2635 5.44453 8.9163 5.38203 5.73574Z" fill="white"/>
</svg>
