<svg width="100" height="101" viewBox="0 0 100 101" fill="none" xmlns="http://www.w3.org/2000/svg">
<g clip-path="url(#clip0_131_1833)">
<path d="M98.2492 5.23315C97.2689 4.49539 95.9993 4.2604 94.8206 4.59915C90.2956 5.89843 84.5285 5.53146 77.2272 5.06759C72.6556 4.77691 67.4745 4.44732 61.5236 4.44732C56.8605 4.44732 52.6704 6.50345 49.8048 9.75357C46.9392 6.50345 42.7499 4.44732 38.086 4.44732C32.1359 4.44732 26.954 4.77691 22.3824 5.06759C15.0811 5.53222 9.31403 5.8992 4.78903 4.59915C3.61029 4.2604 2.34075 4.49539 1.36114 5.23315C0.38076 5.97168 -0.19526 7.12677 -0.19526 8.35358V73.1577C-0.205941 77.3387 1.41454 81.2716 4.36712 84.2318C7.3197 87.192 11.2488 88.8224 15.4298 88.8224H43.7501C45.9077 88.8224 47.6564 87.0738 47.6564 84.9162C47.6564 82.7586 45.9077 81.0099 43.7501 81.0099H15.4298C13.3393 81.0099 11.3747 80.1951 9.89844 78.715C8.42215 77.2349 7.61191 75.268 7.61725 73.1677V71.0955C9.91751 72.4291 12.5848 73.1974 15.4298 73.1974H44.5314C45.3996 73.1974 45.9939 73.7368 46.2609 74.2411C46.9621 75.5648 48.3155 76.3201 49.7163 76.3201C50.3328 76.3201 50.9584 76.1744 51.5405 75.8654C52.7169 75.2429 53.4425 74.1046 53.5898 72.877C53.666 72.5726 53.7111 72.2559 53.7111 71.9279V20.0723C53.7111 15.7648 57.2152 12.2598 61.5236 12.2598C67.2258 12.2598 72.2757 12.581 76.7313 12.8641C82.5578 13.2349 87.4994 13.5492 91.9924 13.0617V41.1661C91.9924 43.3237 93.741 45.0724 95.8986 45.0724C98.0562 45.0724 99.8049 43.3237 99.8049 41.1661V8.35358C99.8049 7.12677 99.2289 5.97168 98.2492 5.23315ZM15.4298 65.3849C11.1222 65.3849 7.61725 61.88 7.61725 57.5724V13.0617C12.1102 13.5492 17.051 13.2349 22.8776 12.8641C27.3339 12.581 32.3838 12.2598 38.086 12.2598C42.3936 12.2598 45.8986 15.7648 45.8986 20.0723V65.481C45.4499 65.4177 44.9937 65.3849 44.5314 65.3849H15.4298ZM39.2579 26.5177C39.2579 28.6753 37.5093 30.4239 35.3517 30.4239H18.3595C16.2019 30.4239 14.4532 28.6753 14.4532 26.5177C14.4532 24.3601 16.2019 22.6114 18.3595 22.6114H35.3517C37.5093 22.6114 39.2579 24.3601 39.2579 26.5177ZM33.3985 42.1427C33.3985 44.3003 31.6499 46.0489 29.4923 46.0489H18.3595C16.2019 46.0489 14.4532 44.3003 14.4532 42.1427C14.4532 39.9851 16.2019 38.2364 18.3595 38.2364H29.4923C31.6499 38.2364 33.3985 39.9851 33.3985 42.1427ZM79.8029 54.1659L58.3574 75.5641C57.9019 76.0188 57.5654 76.5788 57.3785 77.1945L52.7078 92.57C52.2943 93.9334 52.6552 95.4142 53.6493 96.4335C54.3947 97.1972 55.4071 97.6123 56.4462 97.6123C56.7933 97.6123 57.1443 97.5657 57.4884 97.4696L73.2553 93.1025C73.9038 92.9225 74.4951 92.5784 74.9719 92.1023L96.3732 70.7423C100.942 66.173 100.942 58.7382 96.3732 54.1689C91.8039 49.5997 84.3691 49.5997 79.8029 54.1659ZM70.1791 85.847L62.2476 88.0442L64.5685 80.4026L79.0392 65.964L84.5644 71.4892L70.1791 85.847ZM90.851 65.2148L90.0942 65.9701L84.5697 60.4456L85.3243 59.6934C86.8471 58.1698 89.3251 58.1698 90.848 59.6934C92.3715 61.2162 92.3715 63.6942 90.851 65.2148Z" fill="#F25C3A"/>
</g>
<defs>
<clipPath id="clip0_131_1833">
<rect width="100" height="100" fill="white" transform="translate(0 0.931641)"/>
</clipPath>
</defs>
</svg>
