<svg width="100" height="101" viewBox="0 0 100 101" fill="none" xmlns="http://www.w3.org/2000/svg">
<g clip-path="url(#clip0_131_1848)">
<path d="M85.674 11.9717H70.8441C69.0292 11.9717 67.5581 13.443 67.5581 15.2576C67.5581 17.0723 69.0294 18.5436 70.8441 18.5436H82.3878V30.0873C82.3878 31.9022 83.8591 33.3733 85.6738 33.3733C87.4884 33.3733 88.9597 31.902 88.9597 30.0873V15.2576C88.9601 13.443 87.4888 11.9717 85.674 11.9717Z" fill="#F25C3A"/>
<path d="M85.6742 68.4897C83.8594 68.4897 82.3883 69.961 82.3883 71.7757V83.3195H70.8445C69.0297 83.3195 67.5586 84.7908 67.5586 86.6054C67.5586 88.4201 69.0299 89.8913 70.8445 89.8913H85.6744C87.4893 89.8913 88.9604 88.4201 88.9604 86.6054V71.7755C88.9604 69.961 87.4891 68.4897 85.6742 68.4897Z" fill="#F25C3A"/>
<path d="M29.1557 11.9717H14.326C12.5111 11.9717 11.04 13.443 11.04 15.2576V30.0873C11.04 31.9024 12.5113 33.3737 14.326 33.3737C16.1406 33.3737 17.6119 31.9024 17.6119 30.0877V18.5438H29.1557C30.9706 18.5438 32.4417 17.0725 32.4417 15.2578C32.4417 13.4432 30.9706 11.9717 29.1557 11.9717Z" fill="#F25C3A"/>
<path d="M29.1561 83.3199H17.6119V71.7762C17.6119 69.9613 16.1406 68.4902 14.326 68.4902C12.5113 68.4902 11.04 69.9615 11.04 71.7762V86.6061C11.04 88.4209 12.5113 89.892 14.326 89.892H29.1557C30.9706 89.892 32.4417 88.4207 32.4417 86.6061C32.4417 84.7914 30.9707 83.3199 29.1561 83.3199Z" fill="#F25C3A"/>
<path d="M99.1952 48.7772C98.9534 48.4987 93.1704 41.8799 84.3094 35.1889C73.4315 26.975 63.0131 22.3996 53.2861 21.5518V25.2787C64.9211 26.7608 74.1709 36.0088 75.6532 47.6458H81.4348C83.2497 47.6458 84.7208 49.117 84.7208 50.9317C84.7208 52.7464 83.2495 54.2176 81.4348 54.2176H75.6532C74.1739 65.8325 64.9418 75.1001 53.2861 76.5847V80.3116C63.0131 79.4636 73.4315 74.8886 84.3094 66.6745C93.1704 59.9835 98.9534 53.3645 99.1952 53.0862C100.269 51.8506 100.269 50.013 99.1952 48.7772Z" fill="#F25C3A"/>
<path d="M18.5653 47.6458H24.347C25.8263 36.031 35.0583 26.7634 46.714 25.2788V21.5513C36.987 22.3993 26.5687 26.9743 15.6907 35.1884C6.82975 41.8796 1.04673 48.4986 0.804933 48.7769C-0.268311 50.0128 -0.268311 51.8502 0.804933 53.0863C1.04673 53.3648 6.82975 59.9836 15.6907 66.6746C26.5687 74.8885 36.987 79.4639 46.714 80.3117V76.5848C35.079 75.1027 25.8292 65.8547 24.347 54.2177H18.5653C16.7505 54.2177 15.2794 52.7464 15.2794 50.9318C15.2792 49.1171 16.7505 47.6458 18.5653 47.6458Z" fill="#F25C3A"/>
<path d="M53.2861 54.2178V69.9395C61.294 68.5594 67.6276 62.2256 69.0078 54.2178H53.2861Z" fill="#F25C3A"/>
<path d="M30.9922 54.2178C32.3723 62.2256 38.7061 68.5592 46.7139 69.9395V54.2178H30.9922Z" fill="#F25C3A"/>
<path d="M30.9922 47.6455H46.7139V31.9238C38.7061 33.3041 32.3723 39.6377 30.9922 47.6455Z" fill="#F25C3A"/>
<path d="M53.2861 31.9238V47.6455H69.0078C67.6276 39.6375 61.2938 33.3039 53.2861 31.9238Z" fill="#F25C3A"/>
</g>
<defs>
<clipPath id="clip0_131_1848">
<rect width="100" height="100" fill="white" transform="translate(0 0.931641)"/>
</clipPath>
</defs>
</svg>
