<svg width="100" height="62" viewBox="0 0 100 62" fill="none" xmlns="http://www.w3.org/2000/svg">
<path d="M53.864 0.012207C48.1263 0.012207 43.1777 0.53867 38.9838 1.779C20.0763 6.63975 0 31.7404 0 31.7404C0 31.7404 25.6454 61.851 46.138 61.851C51.8747 61.851 56.8243 61.3234 61.0173 60.0821C79.9248 55.2212 100 30.1237 100 30.1237C100 30.1237 74.3567 0.012207 53.864 0.012207ZM48.842 52.008C37.8346 52.008 28.9138 43.0861 28.9138 32.0798C28.9138 21.0713 37.8346 12.1505 48.842 12.1505C59.8494 12.1505 68.7713 21.0713 68.7713 32.0798C68.7713 43.0861 59.8494 52.008 48.842 52.008Z" fill="#F25C3A"/>
<path d="M49.377 22.6509C49.7024 23.2573 49.9046 23.9395 49.9046 24.6769C49.9046 27.0609 47.9693 28.994 45.5864 28.994C43.7116 28.994 42.1299 27.7896 41.5341 26.1202C40.2108 27.7451 39.3848 29.794 39.3848 32.0537C39.3848 37.2759 43.6187 41.5119 48.8418 41.5119C54.065 41.5119 58.2989 37.2782 58.2989 32.0537C58.2989 27.0124 54.3441 22.9362 49.377 22.6509Z" fill="#F25C3A"/>
</svg>
