<svg width="44" height="44" viewBox="0 0 44 44" fill="none" xmlns="http://www.w3.org/2000/svg">
<path d="M41.9674 27.0178C41.0819 35.9329 33.8583 43.0984 24.9368 43.9181C14.3906 44.8872 5.39767 37.1333 4.35454 27.0551H2.4959C1.36592 27.0551 0.659693 25.8317 1.22479 24.8532L5.38164 17.6549C5.94667 16.6765 7.35898 16.6766 7.92393 17.655L12.08 24.8533C12.6449 25.8319 11.9387 27.0551 10.8088 27.0551H9.19073C10.2419 34.5796 17.2471 40.2229 25.2789 39.0457C31.2223 38.1747 36.0432 33.4856 37.0534 27.5642C38.5655 18.7016 31.7455 10.9881 23.1581 10.9881C20.3733 10.9881 17.6855 11.7961 15.3767 13.3261C14.3052 14.0361 12.8198 13.8957 12.0337 12.8787C11.1778 11.7714 11.445 10.1906 12.5864 9.41988C15.0635 7.74645 17.8717 6.70065 20.8139 6.3365V3.608H18.8883C18.2258 3.608 17.6886 3.07094 17.6886 2.40835V1.19965C17.6886 0.537059 18.2257 0 18.8883 0H27.8185C28.481 0 29.0181 0.537059 29.0181 1.19965V2.40835C29.0181 3.07087 28.4811 3.608 27.8185 3.608H25.6974V6.36497C35.5365 7.69252 43.0008 16.6123 41.9674 27.0178ZM42.5887 8.86219L38.9715 5.51869C38.4849 5.06899 37.726 5.09882 37.2762 5.58534L36.3193 6.62056C35.8695 7.10708 35.8994 7.86608 36.386 8.31586L40.0032 11.6593C40.4898 12.1089 41.2487 12.0792 41.6985 11.5926L42.6553 10.5574C43.1051 10.0709 43.0753 9.3119 42.5887 8.86219ZM23.1013 13.4544V25.1873H34.7171C34.7172 18.0421 29.296 13.4544 23.1013 13.4544Z" fill="#F25C3A"/>
</svg>
