<svg width="100" height="100" viewBox="0 0 100 100" fill="none" xmlns="http://www.w3.org/2000/svg">
<g clip-path="url(#clip0_63_113)">
<path d="M35.8235 52.3918C36.5726 52.3918 37.3218 52.1063 37.8937 51.5352L61.4134 28.0486C64.5155 24.951 66.2239 20.832 66.2239 16.4508C66.2239 12.0693 64.5155 7.95059 61.4134 4.85293C55.0128 -1.53887 44.5976 -1.53887 38.1968 4.85293L35.8235 7.22266L33.4505 4.85293C27.0497 -1.53887 16.6347 -1.53867 10.2337 4.85293C7.13174 7.95059 5.42334 12.0695 5.42334 16.4508C5.42334 20.832 7.13174 24.951 10.2337 28.0486L33.7534 51.5352C34.3253 52.1063 35.0743 52.3918 35.8235 52.3918Z" fill="#F25C3A"/>
<path d="M91.1123 45.3138C86.11 40.3187 77.9707 40.3187 72.9686 45.3138L71.7768 46.5036L70.5854 45.3138C65.5828 40.3187 57.4438 40.3185 52.4414 45.3138C50.0168 47.7349 48.6816 50.9542 48.6816 54.3788C48.6816 57.8034 50.0168 61.0226 52.4414 63.4439L69.7064 80.6845C70.2785 81.2556 71.0275 81.5411 71.7768 81.5411C72.5258 81.5411 73.275 81.2556 73.8469 80.6845L91.1123 63.4439C93.5367 61.0228 94.8721 57.8034 94.8721 54.3788C94.8721 50.9542 93.5369 47.7349 91.1123 45.3138Z" fill="#F25C3A"/>
<path d="M38.4377 73.4743L38.2596 73.6523L38.0814 73.4743C34.2787 69.6773 28.0912 69.6775 24.2885 73.4743C22.4451 75.3152 21.4297 77.763 21.4297 80.3669C21.4297 82.9708 22.4449 85.4187 24.2885 87.2595L36.1895 99.1437C36.7613 99.7148 37.5105 100 38.2596 100C39.0086 100 39.7578 99.7148 40.3297 99.1437L52.2307 87.2595C54.074 85.4187 55.0895 82.9708 55.0895 80.3669C55.0895 77.763 54.0742 75.3152 52.2307 73.4743C48.4279 69.6771 42.2404 69.6773 38.4377 73.4743Z" fill="#F25C3A"/>
<path d="M75.6492 16.4512H79.9269C81.5449 16.4512 82.8566 15.1395 82.8566 13.5215C82.8566 11.9035 81.5449 10.5918 79.9269 10.5918H75.6492C74.0312 10.5918 72.7195 11.9035 72.7195 13.5215C72.7195 15.1395 74.0312 16.4512 75.6492 16.4512Z" fill="#F25C3A"/>
<path d="M86.3596 27.0436C87.9776 27.0436 89.2893 25.7319 89.2893 24.114V19.8423C89.2893 18.2243 87.9776 16.9126 86.3596 16.9126C84.7417 16.9126 83.4299 18.2243 83.4299 19.8423V24.114C83.4299 25.7319 84.7417 27.0436 86.3596 27.0436Z" fill="#F25C3A"/>
<path d="M97.0705 10.5918H92.7927C91.1748 10.5918 89.863 11.9035 89.863 13.5215C89.863 15.1395 91.1748 16.4512 92.7927 16.4512H97.0705C98.6884 16.4512 100 15.1395 100 13.5215C100 11.9035 98.6884 10.5918 97.0705 10.5918Z" fill="#F25C3A"/>
<path d="M86.3596 10.1311C87.9776 10.1311 89.2893 8.81933 89.2893 7.20137V2.92969C89.2893 1.31172 87.9776 0 86.3596 0C84.7417 0 83.4299 1.31172 83.4299 2.92969V7.20137C83.4299 8.81933 84.7417 10.1311 86.3596 10.1311Z" fill="#F25C3A"/>
<path d="M7.20742 55.4897H2.92969C1.31172 55.4897 0 56.8015 0 58.4194C0 60.0374 1.31172 61.3491 2.92969 61.3491H7.20742C8.82539 61.3491 10.1371 60.0374 10.1371 58.4194C10.1371 56.8015 8.82539 55.4897 7.20742 55.4897Z" fill="#F25C3A"/>
<path d="M13.6401 61.8101C12.0222 61.8101 10.7104 63.1218 10.7104 64.7397V69.0114C10.7104 70.6294 12.0222 71.9411 13.6401 71.9411C15.2581 71.9411 16.5698 70.6294 16.5698 69.0114V64.7397C16.5698 63.1218 15.2583 61.8101 13.6401 61.8101Z" fill="#F25C3A"/>
<path d="M27.2804 58.4194C27.2804 56.8015 25.9687 55.4897 24.3507 55.4897H20.073C18.455 55.4897 17.1433 56.8015 17.1433 58.4194C17.1433 60.0374 18.455 61.3491 20.073 61.3491H24.3507C25.9687 61.3491 27.2804 60.0374 27.2804 58.4194Z" fill="#F25C3A"/>
<path d="M13.6401 44.8975C12.0222 44.8975 10.7104 46.2092 10.7104 47.8271V52.0988C10.7104 53.7168 12.0222 55.0285 13.6401 55.0285C15.2581 55.0285 16.5698 53.7168 16.5698 52.0988V47.8271C16.5698 46.2092 15.2583 44.8975 13.6401 44.8975Z" fill="#F25C3A"/>
</g>
<defs>
<clipPath id="clip0_63_113">
<rect width="100" height="100" fill="white"/>
</clipPath>
</defs>
</svg>
