<svg width="44" height="44" viewBox="0 0 44 44" fill="none" xmlns="http://www.w3.org/2000/svg">
<g clip-path="url(#clip0_63_216)">
<path d="M43.8615 19.5576C43.7921 18.9391 43.0707 18.4739 42.447 18.4739C40.4311 18.4739 38.642 17.2907 37.8918 15.4594C37.1259 13.5842 37.62 11.3976 39.1219 10.0198C39.595 9.58725 39.6526 8.86303 39.2561 8.3603C38.224 7.05 37.0515 5.86624 35.7708 4.84042C35.2698 4.43854 34.5336 4.49448 34.0988 4.97571C32.7876 6.42796 30.432 6.96761 28.6118 6.20818C26.7183 5.41146 25.5231 3.49206 25.6405 1.43186C25.6791 0.784318 25.2057 0.221648 24.5604 0.146486C22.917 -0.0437987 21.259 -0.049317 19.6108 0.133546C18.9737 0.203951 18.5006 0.753302 18.5218 1.39266C18.5931 3.43269 17.3844 5.31822 15.5092 6.0864C13.7108 6.82109 11.3716 6.28544 10.0631 4.84594C9.63054 4.37175 8.90727 4.31352 8.40283 4.70684C7.08454 5.74141 5.88556 6.92593 4.84394 8.22557C4.43807 8.73078 4.498 9.46299 4.97505 9.89703C6.50665 11.284 7.00043 13.4894 6.20524 15.3865C5.446 17.1952 3.56809 18.3603 1.41844 18.3603C0.720862 18.3379 0.224411 18.8065 0.147345 19.4409C-0.0459834 21.0932 -0.0480765 22.7776 0.138022 24.4433C0.207475 25.0644 0.950155 25.5256 1.58076 25.5256C3.49692 25.4769 5.33545 26.6624 6.10781 28.5399C6.87637 30.4152 6.38163 32.6008 4.87724 33.9805C4.40667 34.4131 4.34654 35.1356 4.74385 35.6377C5.76549 36.9398 6.93916 38.1244 8.22358 39.1589C8.72783 39.565 9.46119 39.5081 9.89827 39.0263C11.2147 37.5706 13.5698 37.0319 15.3826 37.7929C17.2817 38.5875 18.4763 40.5067 18.3596 42.5675C18.3214 43.215 18.796 43.7794 19.4389 43.8529C20.28 43.9513 21.1254 44 21.9735 44C22.7784 44 23.5835 43.956 24.3886 43.8664C25.0264 43.796 25.4987 43.2461 25.4772 42.6065C25.4036 40.5674 26.6149 38.6817 28.4879 37.9151C30.2983 37.1756 32.627 37.7168 33.9363 39.1542C34.3711 39.6274 35.09 39.6849 35.5965 39.2931C36.9125 38.2612 38.1092 37.0772 39.1554 35.7742C39.5617 35.2699 39.504 34.5367 39.0243 34.1019C37.4931 32.7159 36.9967 30.5096 37.7918 28.6143C38.5393 26.83 40.3474 25.632 42.2921 25.632L42.5642 25.6392C43.1955 25.6904 43.7757 25.2043 43.852 24.5601C44.0463 22.9064 44.0484 21.2239 43.8615 19.5576ZM22 34.6833C14.995 34.6833 9.31676 29.005 9.31676 22.0002C9.31676 14.9955 14.9952 9.31723 22 9.31723C29.0047 9.31723 34.6832 14.9955 34.6832 22.0002C34.6832 24.3779 34.0276 26.6017 32.8892 28.5034L27.3355 22.9496C27.7376 22.0016 27.95 20.9739 27.9498 19.9132C27.9498 17.8363 27.1409 15.8838 25.6721 14.4153C24.2037 12.9469 22.2511 12.1382 20.1746 12.1382C19.4816 12.1382 18.7918 12.2303 18.1245 12.412C17.8322 12.4917 17.5932 12.7326 17.5154 13.0255C17.4358 13.325 17.5254 13.6319 17.7595 13.8662C17.7595 13.8662 20.5013 16.6291 21.4187 17.5463C21.5147 17.6424 21.5146 17.8717 21.501 17.9542L21.4925 18.0146C21.4 19.0231 21.2217 20.2337 21.0746 20.6989C21.0548 20.7185 21.0362 20.7351 21.016 20.7552C20.9949 20.7763 20.9755 20.7967 20.9551 20.8176C20.4838 20.9689 19.2545 21.1493 18.2301 21.241L18.2302 21.2355L18.1842 21.2471C18.176 21.2481 18.1608 21.2492 18.1406 21.2492C18.0299 21.2492 17.867 21.2182 17.719 21.0703C16.7641 20.1155 14.1298 17.5 14.1298 17.5C13.8935 17.2645 13.6511 17.215 13.4895 17.215C13.1129 17.215 12.7758 17.4871 12.6696 17.8774C11.9444 20.5609 12.7131 23.4476 14.6763 25.4109C16.1451 26.8795 18.0978 27.6882 20.1748 27.6882C21.2354 27.6882 22.2631 27.4761 23.2109 27.074L28.8249 32.6879C26.8539 33.9492 24.5134 34.6833 22 34.6833Z" fill="#F25C3A"/>
</g>
<defs>
<clipPath id="clip0_63_216">
<rect width="44" height="44" fill="white"/>
</clipPath>
</defs>
</svg>
