<svg width="44" height="44" viewBox="0 0 44 44" fill="none" xmlns="http://www.w3.org/2000/svg">
<g clip-path="url(#clip0_63_207)">
<path d="M6.42304 28.1942C6.17396 28.691 6.27097 29.2915 6.6634 29.6843L6.97861 29.9995C7.88935 28.9203 8.95081 27.749 10.2382 26.462C10.3292 26.371 10.4228 26.327 10.5141 26.2431L8.48621 24.2148C7.30726 26.3472 6.61976 27.8041 6.42304 28.1942Z" fill="#F25C3A"/>
<path d="M17.5302 33.754C16.2398 35.0444 15.0716 36.1079 13.9984 37.0193L14.4254 37.4463C14.8215 37.8424 15.4278 37.9377 15.9263 37.6812C16.594 37.3372 17.644 36.843 19.8731 35.6016L17.7495 33.478C17.6655 33.5697 17.6216 33.663 17.5302 33.754Z" fill="#F25C3A"/>
<path d="M16.8432 27.1509C15.9116 26.2193 13.2919 27.0545 12.0612 28.2848C7.94429 32.4018 6.08489 35.3206 5.25002 37.0441C5.01067 37.5379 5.11037 38.129 5.49843 38.5171C5.88716 38.9062 6.47933 39.0049 6.97347 38.7655C8.65831 37.9474 11.5416 36.0967 15.7075 31.9311C17.0607 30.5773 17.7284 28.0364 16.8442 27.1519L16.8432 27.1509Z" fill="#F25C3A"/>
<path d="M4.02355 17.1627L0.377587 20.8087C-0.0346447 21.2209 -0.119239 21.8591 0.172814 22.3646C0.457818 22.8635 1.05468 23.1176 1.62267 22.9655C3.59319 22.4371 5.32705 22.2139 6.49459 22.5133C8.1556 19.5602 9.94048 16.8418 11.8308 14.3724C10.7374 13.6715 7.12435 14.0619 4.02355 17.1627Z" fill="#F25C3A"/>
<path d="M21.819 43.8619C22.3155 44.113 22.9167 44.016 23.3098 43.6225L26.9561 39.9766C29.779 37.153 30.2758 33.5101 29.6353 32.355C26.8813 34.4306 24.0913 36.1832 21.4884 37.6505C21.6679 38.6647 21.5484 39.6486 21.1238 42.5221C21.0409 43.0784 21.3282 43.6165 21.819 43.8619Z" fill="#F25C3A"/>
<path d="M25.5922 12.9308C24.0846 14.4387 24.0846 16.8916 25.5922 18.3995C27.1002 19.9075 29.5534 19.9075 31.0614 18.3995C32.5693 16.8916 32.5693 14.4387 31.0614 12.9308C29.5534 11.4228 27.1002 11.4228 25.5922 12.9308Z" fill="#F25C3A"/>
<path d="M43.9241 1.2574C43.8778 0.619914 43.3702 0.116038 42.7347 0.0683698C39.5688 -0.169972 36.4153 0.219432 33.3242 1.16474C33.5569 3.28834 34.6552 5.5865 36.5304 7.46168C38.4281 9.35902 40.7887 10.4571 42.9503 10.6625C43.7828 7.745 44.1776 4.62037 43.9241 1.2574Z" fill="#F25C3A"/>
<path d="M34.7076 9.28479C32.5626 7.13971 31.2527 4.56696 30.8324 2.06201C23.0916 5.23666 15.6815 12.1694 9.82605 21.9085L12.7352 24.8177C14.7228 24.0107 17.1358 23.7975 18.6662 25.3276C20.1986 26.8604 19.9814 29.2723 19.1748 31.2573L22.1796 34.2621C29.6729 29.746 38.3969 22.631 42.1067 13.1647C39.5406 12.777 36.8876 11.4648 34.7076 9.28479ZM32.8842 20.2227C30.3715 22.7354 26.2824 22.7354 23.7694 20.2227C21.2564 17.7097 21.2564 13.6203 23.7694 11.1076C26.2824 8.59494 30.3715 8.59494 32.8842 11.1076C35.3972 13.6206 35.3972 17.7097 32.8842 20.2227Z" fill="#F25C3A"/>
</g>
<defs>
<clipPath id="clip0_63_207">
<rect width="44" height="44" fill="white"/>
</clipPath>
</defs>
</svg>
