<svg width="100" height="100" viewBox="0 0 100 100" fill="none" xmlns="http://www.w3.org/2000/svg">
<g clip-path="url(#clip0_63_125)">
<path d="M14.1872 99.6535C14.7552 100.07 15.4936 100.108 16.0995 99.786L34.9005 89.9027L53.7015 99.786C53.9666 99.9185 54.2506 99.9945 54.5536 99.9945C54.9322 99.9945 55.292 99.8807 55.614 99.6535C56.1629 99.2559 56.4469 98.5553 56.3335 97.8739L52.7361 76.9332L67.9587 62.1082C68.451 61.6349 68.6214 60.9154 68.4129 60.2527C68.2047 59.5901 67.6366 59.1167 66.955 59.0221L45.9388 55.9738L36.5288 36.9264C35.9229 35.6957 33.8971 35.6957 33.2912 36.9264L23.8623 55.9738L2.84604 59.0221C2.16443 59.1167 1.59642 59.609 1.38816 60.2527C1.17989 60.9154 1.35029 61.6349 1.84256 62.1082L17.0651 76.9332L13.4678 97.8739C13.3352 98.5744 13.6192 99.2559 14.1872 99.6535Z" fill="#F25C3A"/>
<path d="M98.6118 75.5126C98.4036 74.85 97.8356 74.3766 97.154 74.282L88.5962 73.0323L84.7716 65.2696C84.4685 64.6448 83.8439 64.2661 83.1431 64.2661C82.4428 64.2661 81.8178 64.6637 81.5148 65.2696L77.6903 73.0323L69.1323 74.282C68.4507 74.3766 67.8827 74.8691 67.6746 75.5126C67.4662 76.1753 67.6368 76.895 68.1288 77.3683L74.3201 83.4079L72.8622 91.928C72.7486 92.6098 73.0326 93.2912 73.5817 93.7078C74.1308 94.1054 74.8881 94.162 75.4942 93.8403L83.1431 89.8073L90.7923 93.8403C91.0574 93.9727 91.3414 94.0486 91.6443 94.0486C92.023 94.0486 92.3827 93.935 92.7046 93.7078C93.2536 93.31 93.5376 92.6096 93.424 91.928L91.9663 83.4079L98.1574 77.3683C98.6497 76.895 98.8201 76.1753 98.6118 75.5126Z" fill="#F25C3A"/>
<path d="M61.8809 28.2926C61.275 27.062 59.2493 27.062 58.6432 28.2926L55.8787 33.897L49.7064 34.7868C49.0248 34.8815 48.4568 35.3738 48.2485 36.0175C48.0402 36.6802 48.2106 37.3997 48.7029 37.873L53.1712 42.2277L52.111 48.3811C51.9972 49.0627 52.2812 49.7443 52.8304 50.1611C53.1523 50.3881 53.512 50.5019 53.8907 50.5019C54.1747 50.5019 54.4778 50.4261 54.7238 50.2747L60.2524 47.3589L65.781 50.2368C66.0459 50.3693 66.3299 50.3883 66.6139 50.3883C66.633 50.3883 66.6517 50.3883 66.6517 50.3883C67.6552 50.3883 68.4694 49.6309 68.4694 48.6275C68.4694 48.4003 68.4317 48.2299 68.3558 48.0216L67.3523 42.2279L71.8206 37.8732C72.3131 37.3999 72.4833 36.6804 72.275 36.0177C72.0666 35.355 71.4985 34.8817 70.8171 34.787L64.6448 33.8972L61.8809 28.2926Z" fill="#F25C3A"/>
<path d="M20.4544 5.32635C19.6213 3.62234 16.8381 3.62234 15.9861 5.32635L12.1993 13.0134L3.71711 14.2441C2.77044 14.3766 1.99416 15.0393 1.71016 15.9291C1.42615 16.8379 1.65336 17.8225 2.33496 18.4852L8.46943 24.4682L7.03048 32.9125C6.87902 33.8403 7.25769 34.787 8.01503 35.336C8.4505 35.6579 8.96171 35.8094 9.47291 35.8094C9.87052 35.8094 10.2681 35.6958 10.6279 35.5064L18.2202 31.4925L25.8126 35.4496C26.1723 35.639 26.5699 35.6579 26.9675 35.6579C26.9864 35.6579 27.0054 35.6579 27.0243 35.6579C28.4065 35.6579 29.5046 34.6166 29.5046 33.2344C29.5046 32.9125 29.4478 32.6853 29.3342 32.4013L27.971 24.4303L34.1055 18.4473C34.7871 17.7846 35.0332 16.8001 34.7303 15.8913C34.4273 14.9825 33.6511 14.3387 32.7233 14.2062L24.2411 12.9755L20.4544 5.32635Z" fill="#F25C3A"/>
<path d="M93.7649 47.8886C93.6511 47.5668 93.3671 47.3206 93.0265 47.2638L90.1675 46.8473L88.899 44.2723C88.596 43.6475 87.5736 43.6475 87.2707 44.2723L86.0021 46.8473L83.143 47.2638C82.8022 47.3206 82.5182 47.5478 82.4047 47.8886C82.291 48.2105 82.3856 48.5702 82.6319 48.8164L84.6955 50.8235L84.2032 53.6635C84.1464 54.0043 84.2788 54.3451 84.5628 54.5534C84.8468 54.7617 85.2065 54.7804 85.5095 54.629L88.0655 53.2847L90.6215 54.629C90.7541 54.7047 90.9055 54.7428 91.0381 54.7428C91.2274 54.7428 91.4167 54.6858 91.5682 54.5724C91.8522 54.3641 91.9847 54.0233 91.9279 53.6825L91.4357 50.8424L93.4992 48.8355C93.7838 48.5892 93.8785 48.2294 93.7649 47.8886Z" fill="#F25C3A"/>
<path d="M87.5923 22.6696C87.4221 22.3666 87.0813 22.2152 86.7403 22.2341L83.8626 22.4802L82.0448 20.2461C81.6093 19.716 80.6248 19.9432 80.4733 20.6058L79.8106 23.408L77.1221 24.4493C76.8002 24.5819 76.5732 24.8659 76.5541 25.2067C76.5162 25.5475 76.6866 25.8883 76.9895 26.0587L79.4509 27.5544L79.6213 30.4323C79.6402 30.7731 79.8485 31.0761 80.1704 31.2086C80.492 31.3412 80.852 31.2844 81.117 31.0572L83.2944 29.1827L86.0774 29.9211C86.2291 29.959 86.3615 29.959 86.5131 29.9211C86.7024 29.8833 86.8727 29.7886 86.9864 29.6371C87.2135 29.3721 87.2704 29.0123 87.1379 28.6905L86.0208 26.0398L87.5734 23.6163C87.7629 23.3323 87.7817 22.9725 87.5923 22.6696Z" fill="#F25C3A"/>
<path d="M62.2785 6.15929C62.0134 5.70488 61.502 5.45874 60.9908 5.49661L56.6361 5.85635L53.8718 2.46724C53.2091 1.6531 51.7134 2.01284 51.4673 3.01632L50.4638 7.27636L46.3931 8.86678C45.9008 9.05612 45.56 9.51052 45.5221 10.0217C45.4843 10.5519 45.7304 11.0441 46.1848 11.3092L49.9147 13.5812L50.1608 17.9549C50.1987 18.485 50.5206 18.9394 50.9939 19.1477C51.4673 19.356 52.0353 19.2613 52.4331 18.9205L55.7464 16.0615L59.9686 17.1786C60.1958 17.2354 60.4041 17.2354 60.6313 17.1975C60.9153 17.1407 61.1614 16.9893 61.3507 16.7621C61.6916 16.3645 61.7862 15.8154 61.5779 15.3231L59.8739 11.2903L62.2406 7.61717C62.5436 7.1817 62.5436 6.61369 62.2785 6.15929Z" fill="#F25C3A"/>
<path d="M81.0226 2.14536C80.8901 1.91816 80.6248 1.78563 80.36 1.80456L78.1069 1.99389L76.6679 0.233074C76.3269 -0.183464 75.5509 -0.013062 75.4181 0.517077L74.9069 2.71337L72.8053 3.54645C72.5592 3.64111 72.3698 3.88725 72.3509 4.15232C72.332 4.41739 72.4647 4.68246 72.6919 4.81499L74.6229 5.98887L74.7555 8.2609C74.7746 8.52597 74.9448 8.7721 75.1909 8.86677C75.4373 8.98037 75.7213 8.92357 75.9293 8.75317L77.6523 7.27635L79.8488 7.84436C79.9624 7.88223 80.076 7.88223 80.1896 7.84436C80.341 7.80649 80.4736 7.73076 80.5682 7.61716C80.7386 7.40889 80.7954 7.12489 80.6818 6.87875L79.8109 4.79606L81.0416 2.88377C81.1741 2.6755 81.1741 2.37257 81.0226 2.14536Z" fill="#F25C3A"/>
</g>
<defs>
<clipPath id="clip0_63_125">
<rect width="100" height="100" fill="white"/>
</clipPath>
</defs>
</svg>
